<svg id="my-svg" width="100%" xmlns="http://www.w3.org/2000/svg" xmlns:xlink="http://www.w3.org/1999/xlink" style="max-width: 1416.76px; background-color: white;" viewBox="-8 -8 1416.76171875 656.84375" role="graphics-document document" aria-roledescription="flowchart-v2"><style>#my-svg{font-family:"trebuchet ms",verdana,arial,sans-serif;font-size:16px;fill:#333;}#my-svg .error-icon{fill:#552222;}#my-svg .error-text{fill:#552222;stroke:#552222;}#my-svg .edge-thickness-normal{stroke-width:2px;}#my-svg .edge-thickness-thick{stroke-width:3.5px;}#my-svg .edge-pattern-solid{stroke-dasharray:0;}#my-svg .edge-pattern-dashed{stroke-dasharray:3;}#my-svg .edge-pattern-dotted{stroke-dasharray:2;}#my-svg .marker{fill:#333333;stroke:#333333;}#my-svg .marker.cross{stroke:#333333;}#my-svg svg{font-family:"trebuchet ms",verdana,arial,sans-serif;font-size:16px;}#my-svg .label{font-family:"trebuchet ms",verdana,arial,sans-serif;color:#333;}#my-svg .cluster-label text{fill:#333;}#my-svg .cluster-label span,#my-svg p{color:#333;}#my-svg .label text,#my-svg span,#my-svg p{fill:#333;color:#333;}#my-svg .node rect,#my-svg .node circle,#my-svg .node ellipse,#my-svg .node polygon,#my-svg .node path{fill:#ECECFF;stroke:#9370DB;stroke-width:1px;}#my-svg .flowchart-label text{text-anchor:middle;}#my-svg .node .katex path{fill:#000;stroke:#000;stroke-width:1px;}#my-svg .node .label{text-align:center;}#my-svg .node.clickable{cursor:pointer;}#my-svg .arrowheadPath{fill:#333333;}#my-svg .edgePath .path{stroke:#333333;stroke-width:2.0px;}#my-svg .flowchart-link{stroke:#333333;fill:none;}#my-svg .edgeLabel{background-color:#e8e8e8;text-align:center;}#my-svg .edgeLabel rect{opacity:0.5;background-color:#e8e8e8;fill:#e8e8e8;}#my-svg .labelBkg{background-color:rgba(232, 232, 232, 0.5);}#my-svg .cluster rect{fill:#ffffde;stroke:#aaaa33;stroke-width:1px;}#my-svg .cluster text{fill:#333;}#my-svg .cluster span,#my-svg p{color:#333;}#my-svg div.mermaidTooltip{position:absolute;text-align:center;max-width:200px;padding:2px;font-family:"trebuchet ms",verdana,arial,sans-serif;font-size:12px;background:hsl(80, 100%, 96.2745098039%);border:1px solid #aaaa33;border-radius:2px;pointer-events:none;z-index:100;}#my-svg .flowchartTitleText{text-anchor:middle;font-size:18px;fill:#333;}#my-svg :root{--mermaid-font-family:"trebuchet ms",verdana,arial,sans-serif;}</style><g><marker id="my-svg_flowchart-pointEnd" class="marker flowchart" viewBox="0 0 10 10" refX="6" refY="5" markerUnits="userSpaceOnUse" markerWidth="12" markerHeight="12" orient="auto"><path d="M 0 0 L 10 5 L 0 10 z" class="arrowMarkerPath" style="stroke-width: 1; stroke-dasharray: 1, 0;"/></marker><marker id="my-svg_flowchart-pointStart" class="marker flowchart" viewBox="0 0 10 10" refX="4.5" refY="5" markerUnits="userSpaceOnUse" markerWidth="12" markerHeight="12" orient="auto"><path d="M 0 5 L 10 10 L 10 0 z" class="arrowMarkerPath" style="stroke-width: 1; stroke-dasharray: 1, 0;"/></marker><marker id="my-svg_flowchart-circleEnd" class="marker flowchart" viewBox="0 0 10 10" refX="11" refY="5" markerUnits="userSpaceOnUse" markerWidth="11" markerHeight="11" orient="auto"><circle cx="5" cy="5" r="5" class="arrowMarkerPath" style="stroke-width: 1; stroke-dasharray: 1, 0;"/></marker><marker id="my-svg_flowchart-circleStart" class="marker flowchart" viewBox="0 0 10 10" refX="-1" refY="5" markerUnits="userSpaceOnUse" markerWidth="11" markerHeight="11" orient="auto"><circle cx="5" cy="5" r="5" class="arrowMarkerPath" style="stroke-width: 1; stroke-dasharray: 1, 0;"/></marker><marker id="my-svg_flowchart-crossEnd" class="marker cross flowchart" viewBox="0 0 11 11" refX="12" refY="5.2" markerUnits="userSpaceOnUse" markerWidth="11" markerHeight="11" orient="auto"><path d="M 1,1 l 9,9 M 10,1 l -9,9" class="arrowMarkerPath" style="stroke-width: 2; stroke-dasharray: 1, 0;"/></marker><marker id="my-svg_flowchart-crossStart" class="marker cross flowchart" viewBox="0 0 11 11" refX="-1" refY="5.2" markerUnits="userSpaceOnUse" markerWidth="11" markerHeight="11" orient="auto"><path d="M 1,1 l 9,9 M 10,1 l -9,9" class="arrowMarkerPath" style="stroke-width: 2; stroke-dasharray: 1, 0;"/></marker><g class="root"><g class="clusters"/><g class="edgePaths"><path d="M869.973,37L869.973,41.167C869.973,45.333,869.973,53.667,870.039,61.2C870.105,68.734,870.237,75.467,870.303,78.834L870.369,82.201" id="L-A-B-0" class="edge-thickness-normal edge-pattern-solid flowchart-link LS-A LE-B" style="fill:none;" marker-end="url(#my-svg_flowchart-pointEnd)"/><path d="M817.17,156.072L713.171,170.873C609.173,185.673,401.176,215.274,297.178,235.191C193.18,255.108,193.18,265.342,193.18,270.458L193.18,275.575" id="L-B-C-0" class="edge-thickness-normal edge-pattern-solid flowchart-link LS-B LE-C" style="fill:none;" marker-end="url(#my-svg_flowchart-pointEnd)"/><path d="M828.822,167.724L800.79,180.583C772.759,193.441,716.696,219.158,688.664,237.133C660.633,255.108,660.633,265.342,660.633,270.458L660.633,275.575" id="L-B-D-0" class="edge-thickness-normal edge-pattern-solid flowchart-link LS-B LE-D" style="fill:none;" marker-end="url(#my-svg_flowchart-pointEnd)"/><path d="M913.845,166.002L946.428,179.148C979.01,192.293,1044.175,218.584,1076.757,236.846C1109.34,255.108,1109.34,265.342,1109.34,270.458L1109.34,275.575" id="L-B-E-0" class="edge-thickness-normal edge-pattern-solid flowchart-link LS-B LE-E" style="fill:none;" marker-end="url(#my-svg_flowchart-pointEnd)"/><path d="M920.283,159.565L984.219,173.783C1048.156,188.002,1176.029,216.438,1239.966,235.773C1303.902,255.108,1303.902,265.342,1303.902,270.458L1303.902,275.575" id="L-B-F-0" class="edge-thickness-normal edge-pattern-solid flowchart-link LS-B LE-F" style="fill:none;" marker-end="url(#my-svg_flowchart-pointEnd)"/><path d="M193.18,317.875L193.18,322.042C193.18,326.208,193.18,334.542,193.246,342.075C193.312,349.609,193.444,356.342,193.51,359.709L193.576,363.076" id="L-C-C1-0" class="edge-thickness-normal edge-pattern-solid flowchart-link LS-C LE-C1" style="fill:none;" marker-end="url(#my-svg_flowchart-pointEnd)"/><path d="M153.985,492.65L142.061,505.182C130.136,517.714,106.287,542.779,94.362,560.428C82.438,578.077,82.438,588.31,82.438,593.427L82.438,598.544" id="L-C1-C2-0" class="edge-thickness-normal edge-pattern-solid flowchart-link LS-C1 LE-C2" style="fill:none;" marker-end="url(#my-svg_flowchart-pointEnd)"/><path d="M233.374,492.65L245.132,505.182C256.89,517.714,280.406,542.779,292.164,560.428C303.922,578.077,303.922,588.31,303.922,593.427L303.922,598.544" id="L-C1-C3-0" class="edge-thickness-normal edge-pattern-solid flowchart-link LS-C1 LE-C3" style="fill:none;" marker-end="url(#my-svg_flowchart-pointEnd)"/><path d="M660.633,317.875L660.633,322.042C660.633,326.208,660.633,334.542,660.705,344.147C660.776,353.752,660.92,364.628,660.991,370.067L661.063,375.505" id="L-D-D1-0" class="edge-thickness-normal edge-pattern-solid flowchart-link LS-D LE-D1" style="fill:none;" marker-end="url(#my-svg_flowchart-pointEnd)"/><path d="M625.597,484.379L610.896,498.29C596.195,512.2,566.793,540.022,552.092,559.05C537.391,578.077,537.391,588.31,537.391,593.427L537.391,598.544" id="L-D1-D2-0" class="edge-thickness-normal edge-pattern-solid flowchart-link LS-D1 LE-D2" style="fill:none;" marker-end="url(#my-svg_flowchart-pointEnd)"/><path d="M696.668,484.379L711.203,498.29C725.737,512.2,754.806,540.022,769.341,559.05C783.875,578.077,783.875,588.31,783.875,593.427L783.875,598.544" id="L-D1-D3-0" class="edge-thickness-normal edge-pattern-solid flowchart-link LS-D1 LE-D3" style="fill:none;" marker-end="url(#my-svg_flowchart-pointEnd)"/><path d="M1109.34,317.875L1109.34,322.042C1109.34,326.208,1109.34,334.542,1109.416,347.789C1109.492,361.035,1109.644,379.196,1109.72,388.276L1109.796,397.356" id="L-E-E1-0" class="edge-thickness-normal edge-pattern-solid flowchart-link LS-E LE-E1" style="fill:none;" marker-end="url(#my-svg_flowchart-pointEnd)"/><path d="M1088.786,477.008L1076.676,492.148C1064.565,507.287,1040.345,537.565,1028.235,557.821C1016.125,578.077,1016.125,588.31,1016.125,593.427L1016.125,598.544" id="L-E1-E2-0" class="edge-thickness-normal edge-pattern-solid flowchart-link LS-E1 LE-E2" style="fill:none;" marker-end="url(#my-svg_flowchart-pointEnd)"/><path d="M1130.894,477.008L1142.838,492.148C1154.781,507.287,1178.668,537.565,1190.611,557.821C1202.555,578.077,1202.555,588.31,1202.555,593.427L1202.555,598.544" id="L-E1-E3-0" class="edge-thickness-normal edge-pattern-solid flowchart-link LS-E1 LE-E3" style="fill:none;" marker-end="url(#my-svg_flowchart-pointEnd)"/><path d="M1303.902,317.875L1303.902,322.042C1303.902,326.208,1303.902,334.542,1303.902,352.572C1303.902,370.603,1303.902,398.331,1303.902,412.195L1303.902,426.059" id="L-F-F1-0" class="edge-thickness-normal edge-pattern-solid flowchart-link LS-F LE-F1" style="fill:none;" marker-end="url(#my-svg_flowchart-pointEnd)"/></g><g class="edgeLabels"><g class="edgeLabel"><g class="label" transform="translate(0, 0)"><foreignObject width="0" height="0"><div xmlns="http://www.w3.org/1999/xhtml" style="display: inline-block; white-space: nowrap;"><span class="edgeLabel"></span></div></foreignObject></g></g><g class="edgeLabel" transform="translate(193.1796875, 244.875)"><g class="label" transform="translate(-53.046875, -11)"><foreignObject width="106.09375" height="22"><div xmlns="http://www.w3.org/1999/xhtml" style="display: inline-block; white-space: nowrap;"><span class="edgeLabel">中央 repo 壞了</span></div></foreignObject></g></g><g class="edgeLabel" transform="translate(660.6328125, 244.875)"><g class="label" transform="translate(-65.2265625, -11)"><foreignObject width="130.453125" height="22"><div xmlns="http://www.w3.org/1999/xhtml" style="display: inline-block; white-space: nowrap;"><span class="edgeLabel">Secret 過期或外洩</span></div></foreignObject></g></g><g class="edgeLabel" transform="translate(1109.33984375, 244.875)"><g class="label" transform="translate(-38.40625, -11)"><foreignObject width="76.8125" height="22"><div xmlns="http://www.w3.org/1999/xhtml" style="display: inline-block; white-space: nowrap;"><span class="edgeLabel">Bot 沒回應</span></div></foreignObject></g></g><g class="edgeLabel" transform="translate(1303.90234375, 244.875)"><g class="label" transform="translate(-80.15625, -11)"><foreignObject width="160.3125" height="22"><div xmlns="http://www.w3.org/1999/xhtml" style="display: inline-block; white-space: nowrap;"><span class="edgeLabel">Org Secret 突然不能用</span></div></foreignObject></g></g><g class="edgeLabel"><g class="label" transform="translate(0, 0)"><foreignObject width="0" height="0"><div xmlns="http://www.w3.org/1999/xhtml" style="display: inline-block; white-space: nowrap;"><span class="edgeLabel"></span></div></foreignObject></g></g><g class="edgeLabel" transform="translate(82.4375, 567.84375)"><g class="label" transform="translate(-46.8515625, -11)"><foreignObject width="93.703125" height="22"><div xmlns="http://www.w3.org/1999/xhtml" style="display: inline-block; white-space: nowrap;"><span class="edgeLabel">是,改 private</span></div></foreignObject></g></g><g class="edgeLabel" transform="translate(303.921875, 567.84375)"><g class="label" transform="translate(-26.9375, -11)"><foreignObject width="53.875" height="22"><div xmlns="http://www.w3.org/1999/xhtml" style="display: inline-block; white-space: nowrap;"><span class="edgeLabel">否,被砍</span></div></foreignObject></g></g><g class="edgeLabel"><g class="label" transform="translate(0, 0)"><foreignObject width="0" height="0"><div xmlns="http://www.w3.org/1999/xhtml" style="display: inline-block; white-space: nowrap;"><span class="edgeLabel"></span></div></foreignObject></g></g><g class="edgeLabel" transform="translate(537.390625, 567.84375)"><g class="label" transform="translate(-84.2734375, -9.5)"><foreignObject width="168.546875" height="19"><div xmlns="http://www.w3.org/1999/xhtml" style="display: inline-block; white-space: nowrap;"><span class="edgeLabel">TELEGRAM_BOT_TOKEN</span></div></foreignObject></g></g><g class="edgeLabel" transform="translate(783.875, 567.84375)"><g class="label" transform="translate(-108.65625, -9.5)"><foreignObject width="217.3125" height="19"><div xmlns="http://www.w3.org/1999/xhtml" style="display: inline-block; white-space: nowrap;"><span class="edgeLabel">CLAUDE_CODE_OAUTH_TOKEN</span></div></foreignObject></g></g><g class="edgeLabel"><g class="label" transform="translate(0, 0)"><foreignObject width="0" height="0"><div xmlns="http://www.w3.org/1999/xhtml" style="display: inline-block; white-space: nowrap;"><span class="edgeLabel"></span></div></foreignObject></g></g><g class="edgeLabel" transform="translate(1016.125, 567.84375)"><g class="label" transform="translate(-26.8671875, -9.5)"><foreignObject width="53.734375" height="19"><div xmlns="http://www.w3.org/1999/xhtml" style="display: inline-block; white-space: nowrap;"><span class="edgeLabel">Phase 1</span></div></foreignObject></g></g><g class="edgeLabel" transform="translate(1202.5546875, 567.84375)"><g class="label" transform="translate(-31.0625, -9.5)"><foreignObject width="62.125" height="19"><div xmlns="http://www.w3.org/1999/xhtml" style="display: inline-block; white-space: nowrap;"><span class="edgeLabel">Phase 3+</span></div></foreignObject></g></g><g class="edgeLabel"><g class="label" transform="translate(0, 0)"><foreignObject width="0" height="0"><div xmlns="http://www.w3.org/1999/xhtml" style="display: inline-block; white-space: nowrap;"><span class="edgeLabel"></span></div></foreignObject></g></g></g><g class="nodes"><g class="node default default flowchart-label" id="flowchart-A-0" data-node="true" data-id="A" transform="translate(869.97265625, 18.5)"><rect class="basic label-container" style="" rx="0" ry="0" x="-42.4375" y="-18.5" width="84.875" height="37"/><g class="label" style="" transform="translate(-34.9375, -11)"><rect/><foreignObject width="69.875" height="22"><div xmlns="http://www.w3.org/1999/xhtml" style="display: inline-block; white-space: nowrap;"><span class="nodeLabel">平台失靈?</span></div></foreignObject></g></g><g class="node default default flowchart-label" id="flowchart-B-1" data-node="true" data-id="B" transform="translate(869.97265625, 147.9375)"><polygon points="60.9375,0 121.875,-60.9375 60.9375,-121.875 0,-60.9375" class="label-container" transform="translate(-60.9375,60.9375)" style=""/><g class="label" style="" transform="translate(-34.9375, -11)"><rect/><foreignObject width="69.875" height="22"><div xmlns="http://www.w3.org/1999/xhtml" style="display: inline-block; white-space: nowrap;"><span class="nodeLabel">是哪一類?</span></div></foreignObject></g></g><g class="node default default flowchart-label" id="flowchart-C-3" data-node="true" data-id="C" transform="translate(193.1796875, 299.375)"><rect class="basic label-container" style="" rx="0" ry="0" x="-30.109375" y="-18.5" width="60.21875" height="37"/><g class="label" style="" transform="translate(-22.609375, -11)"><rect/><foreignObject width="45.21875" height="22"><div xmlns="http://www.w3.org/1999/xhtml" style="display: inline-block; white-space: nowrap;"><span class="nodeLabel">情境 1</span></div></foreignObject></g></g><g class="node default default flowchart-label" id="flowchart-D-5" data-node="true" data-id="D" transform="translate(660.6328125, 299.375)"><rect class="basic label-container" style="" rx="0" ry="0" x="-30.109375" y="-18.5" width="60.21875" height="37"/><g class="label" style="" transform="translate(-22.609375, -11)"><rect/><foreignObject width="45.21875" height="22"><div xmlns="http://www.w3.org/1999/xhtml" style="display: inline-block; white-space: nowrap;"><span class="nodeLabel">情境 2</span></div></foreignObject></g></g><g class="node default default flowchart-label" id="flowchart-E-7" data-node="true" data-id="E" transform="translate(1109.33984375, 299.375)"><rect class="basic label-container" style="" rx="0" ry="0" x="-30.109375" y="-18.5" width="60.21875" height="37"/><g class="label" style="" transform="translate(-22.609375, -11)"><rect/><foreignObject width="45.21875" height="22"><div xmlns="http://www.w3.org/1999/xhtml" style="display: inline-block; white-space: nowrap;"><span class="nodeLabel">情境 3</span></div></foreignObject></g></g><g class="node default default flowchart-label" id="flowchart-F-9" data-node="true" data-id="F" transform="translate(1303.90234375, 299.375)"><rect class="basic label-container" style="" rx="0" ry="0" x="-30.109375" y="-18.5" width="60.21875" height="37"/><g class="label" style="" transform="translate(-22.609375, -11)"><rect/><foreignObject width="45.21875" height="22"><div xmlns="http://www.w3.org/1999/xhtml" style="display: inline-block; white-space: nowrap;"><span class="nodeLabel">情境 4</span></div></foreignObject></g></g><g class="node default default flowchart-label" id="flowchart-C1-11" data-node="true" data-id="C1" transform="translate(193.1796875, 449.859375)"><polygon points="81.984375,0 163.96875,-81.984375 81.984375,-163.96875 0,-81.984375" class="label-container" transform="translate(-81.984375,81.984375)" style=""/><g class="label" style="" transform="translate(-55.984375, -11)"><rect/><foreignObject width="111.96875" height="22"><div xmlns="http://www.w3.org/1999/xhtml" style="display: inline-block; white-space: nowrap;"><span class="nodeLabel">中央 repo 還在?</span></div></foreignObject></g></g><g class="node default default flowchart-label" id="flowchart-C2-13" data-node="true" data-id="C2" transform="translate(82.4375, 622.34375)"><rect class="basic label-container" style="" rx="0" ry="0" x="-82.4375" y="-18.5" width="164.875" height="37"/><g class="label" style="" transform="translate(-74.9375, -11)"><rect/><foreignObject width="149.875" height="22"><div xmlns="http://www.w3.org/1999/xhtml" style="display: inline-block; white-space: nowrap;"><span class="nodeLabel">短期:薄貼紙獨立運作</span></div></foreignObject></g></g><g class="node default default flowchart-label" id="flowchart-C3-15" data-node="true" data-id="C3" transform="translate(303.921875, 622.34375)"><rect class="basic label-container" style="" rx="0" ry="0" x="-89.046875" y="-18.5" width="178.09375" height="37"/><g class="label" style="" transform="translate(-81.546875, -11)"><rect/><foreignObject width="163.09375" height="22"><div xmlns="http://www.w3.org/1999/xhtml" style="display: inline-block; white-space: nowrap;"><span class="nodeLabel">中期:fork 重建並發 tag</span></div></foreignObject></g></g><g class="node default default flowchart-label" id="flowchart-D1-17" data-node="true" data-id="D1" transform="translate(660.6328125, 449.859375)"><polygon points="69.5546875,0 139.109375,-69.5546875 69.5546875,-139.109375 0,-69.5546875" class="label-container" transform="translate(-69.5546875,69.5546875)" style=""/><g class="label" style="" transform="translate(-43.5546875, -11)"><rect/><foreignObject width="87.109375" height="22"><div xmlns="http://www.w3.org/1999/xhtml" style="display: inline-block; white-space: nowrap;"><span class="nodeLabel">哪個 secret?</span></div></foreignObject></g></g><g class="node default default flowchart-label" id="flowchart-D2-19" data-node="true" data-id="D2" transform="translate(537.390625, 622.34375)"><rect class="basic label-container" style="" rx="0" ry="0" x="-94.421875" y="-18.5" width="188.84375" height="37"/><g class="label" style="" transform="translate(-86.921875, -11)"><rect/><foreignObject width="173.84375" height="22"><div xmlns="http://www.w3.org/1999/xhtml" style="display: inline-block; white-space: nowrap;"><span class="nodeLabel">BotFather revoke + 替換</span></div></foreignObject></g></g><g class="node default default flowchart-label" id="flowchart-D3-21" data-node="true" data-id="D3" transform="translate(783.875, 622.34375)"><rect class="basic label-container" style="" rx="0" ry="0" x="-102.0625" y="-18.5" width="204.125" height="37"/><g class="label" style="" transform="translate(-94.5625, -11)"><rect/><foreignObject width="189.125" height="22"><div xmlns="http://www.w3.org/1999/xhtml" style="display: inline-block; white-space: nowrap;"><span class="nodeLabel">Console regenerate + 替換</span></div></foreignObject></g></g><g class="node default default flowchart-label" id="flowchart-E1-23" data-node="true" data-id="E1" transform="translate(1109.33984375, 449.859375)"><polygon points="47.703125,0 95.40625,-47.703125 47.703125,-95.40625 0,-47.703125" class="label-container" transform="translate(-47.703125,47.703125)" style=""/><g class="label" style="" transform="translate(-23.203125, -9.5)"><rect/><foreignObject width="46.40625" height="19"><div xmlns="http://www.w3.org/1999/xhtml" style="display: inline-block; white-space: nowrap;"><span class="nodeLabel">Phase?</span></div></foreignObject></g></g><g class="node default default flowchart-label" id="flowchart-E2-25" data-node="true" data-id="E2" transform="translate(1016.125, 622.34375)"><rect class="basic label-container" style="" rx="0" ry="0" x="-80.1875" y="-18.5" width="160.375" height="37"/><g class="label" style="" transform="translate(-72.6875, -11)"><rect/><foreignObject width="145.375" height="22"><div xmlns="http://www.w3.org/1999/xhtml" style="display: inline-block; white-space: nowrap;"><span class="nodeLabel">降級:看 GitHub 通知</span></div></foreignObject></g></g><g class="node default default flowchart-label" id="flowchart-E3-27" data-node="true" data-id="E3" transform="translate(1202.5546875, 622.34375)"><rect class="basic label-container" style="" rx="0" ry="0" x="-56.2421875" y="-18.5" width="112.484375" height="37"/><g class="label" style="" transform="translate(-48.7421875, -11)"><rect/><foreignObject width="97.484375" height="22"><div xmlns="http://www.w3.org/1999/xhtml" style="display: inline-block; white-space: nowrap;"><span class="nodeLabel">重啟 bot 服務</span></div></foreignObject></g></g><g class="node default default flowchart-label" id="flowchart-F1-29" data-node="true" data-id="F1" transform="translate(1303.90234375, 449.859375)"><rect class="basic label-container" style="" rx="0" ry="0" x="-96.859375" y="-18.5" width="193.71875" height="37"/><g class="label" style="" transform="translate(-89.359375, -11)"><rect/><foreignObject width="178.71875" height="22"><div xmlns="http://www.w3.org/1999/xhtml" style="display: inline-block; white-space: nowrap;"><span class="nodeLabel">薄貼紙 fallback 自動生效</span></div></foreignObject></g></g></g></g></g><style>{
  "theme": "dark",
  "themeVariables": {
    "fontFamily": "Heiti TC, PingFang TC, sans-serif",
    "fontSize": "16px"
  },
  "flowchart": { "htmlLabels": true, "useMaxWidth": true },
  "sequence": { "useMaxWidth": true, "diagramMarginX": 20 }
}</style></svg>